<?xml version="1.0" encoding="utf-8"?>
<!-- Generator: Adobe Illustrator 19.0.0, SVG Export Plug-In . SVG Version: 6.00 Build 0)  -->
<svg version="1.1" id="Layer_1" xmlns="http://www.w3.org/2000/svg" xmlns:xlink="http://www.w3.org/1999/xlink" x="0px" y="0px"
	 viewBox="0 0 960 560" style="enable-background:new 0 0 960 560;" xml:space="preserve">
<style type="text/css">
	.st0{fill:url(#XMLID_2_);}
	.st1{fill:url(#XMLID_3_);}
	.st2{fill:url(#XMLID_4_);}
	.st3{fill:url(#XMLID_8_);}
	.st4{fill:none;}
</style>
<linearGradient id="XMLID_2_" gradientUnits="userSpaceOnUse" x1="322.559" y1="262.4901" x2="496.6694" y2="185.244">
	<stop  offset="0" style="stop-color:#3FF6FF"/>
	<stop  offset="0.266" style="stop-color:#00BF9C"/>
	<stop  offset="1" style="stop-color:#000000"/>
</linearGradient>
<path id="XMLID_7_" class="st0" d="M512.3,230.3c-39.8-37.2-88.1-47.5-161-32.6c-0.1,0.1-0.1,0.3-0.2,0.4c-0.1,0.1-0.2,0.2-0.3,0.3
	c-0.2,0.2-0.5,0.4-0.8,0.5c7.4,15.7,15.6,27.4,24.4,36c20.9,20.5,45.2,24.1,69.5,25.3C376.5,227.2,427,203.7,512.3,230.3z"/>
<linearGradient id="XMLID_3_" gradientUnits="userSpaceOnUse" x1="350.0206" y1="287.2458" x2="543.23" y2="287.2458">
	<stop  offset="3.284062e-002" style="stop-color:#000000"/>
	<stop  offset="0.5895" style="stop-color:#00BF9C"/>
	<stop  offset="1" style="stop-color:#3FF6FF"/>
</linearGradient>
<path id="XMLID_6_" class="st1" d="M543.2,299.5c-25.5-41.2-62.5-37.5-99.3-39.3c-24.3-1.2-48.6-4.8-69.5-25.3
	c-8.8-8.6-17-20.3-24.4-36c0,0,0,0,0,0l0.5,70.5v0c42.2,45,90.7,40.6,122.8,43.7c27.9,2.7,43.5,11.1,31.9,62.5
	C525.6,355.1,539,328.4,543.2,299.5z"/>
<linearGradient id="XMLID_4_" gradientUnits="userSpaceOnUse" x1="352.47" y1="356.825" x2="509.1017" y2="356.825">
	<stop  offset="0" style="stop-color:#3FF6FF"/>
	<stop  offset="0.3842" style="stop-color:#00BF9C"/>
	<stop  offset="0.9343" style="stop-color:#000000"/>
	<stop  offset="1" style="stop-color:#000D0A"/>
</linearGradient>
<path id="XMLID_23_" class="st2" d="M505.3,375.6c-8.5,8.6-18.3,16-29,22.2l-26.7,15.2L419,395.6c-35.6-20.2-59.8-55.3-66.5-94.9
	c91,111.5,156.8,31,120.9,12.4C501.2,315.8,516.8,324.2,505.3,375.6z"/>
<linearGradient id="XMLID_8_" gradientUnits="userSpaceOnUse" x1="350" y1="219.94" x2="544.56" y2="219.94">
	<stop  offset="0.2479" style="stop-color:#000000"/>
	<stop  offset="0.5895" style="stop-color:#00BF9C"/>
	<stop  offset="1" style="stop-color:#3FF6FF"/>
</linearGradient>
<path id="XMLID_19_" class="st3" d="M544.6,269.7c-10.3-15-20.9-27.8-32.2-38.3c0,0,0,0,0,0c-40-37.5-88.7-47.6-162.3-32.3
	c29.3-18.2,64.3-28.8,102-28.8c33.5,0,64.9,8.4,92.1,23L544.6,269.7z"/>
<line id="XMLID_5_" class="st4" x1="185" y1="213" x2="185" y2="-36"/>
<line id="XMLID_17_" class="st4" x1="675.2" y1="478.5" x2="574.8" y2="289.5"/>
<line id="XMLID_13_" class="st4" x1="154" y1="312" x2="154" y2="222"/>
<line id="XMLID_14_" class="st4" x1="350" y1="349" x2="350" y2="259"/>
</svg>
