<?xml version="1.0" encoding="utf-8"?>
<!-- Generator: Adobe Illustrator 19.0.0, SVG Export Plug-In . SVG Version: 6.00 Build 0)  -->
<svg version="1.1" id="Layer_1" xmlns="http://www.w3.org/2000/svg" xmlns:xlink="http://www.w3.org/1999/xlink" x="0px" y="0px"
	 viewBox="0 0 960 560" style="enable-background:new 0 0 960 560;" xml:space="preserve">
<style type="text/css">
	.st0{fill:none;}
	.st1{fill:url(#XMLID_8_);}
	.st2{fill:url(#XMLID_9_);}
	.st3{fill:url(#XMLID_10_);}
	.st4{fill:url(#XMLID_11_);}
	.st5{font-family:'BernardMT-Condensed';}
	.st6{font-size:83px;}
</style>
<line id="XMLID_17_" class="st0" x1="629.2" y1="470.5" x2="336.8" y2="316.5"/>
<g id="XMLID_3_">
	<linearGradient id="XMLID_8_" gradientUnits="userSpaceOnUse" x1="18.559" y1="307.4901" x2="192.6694" y2="230.244">
		<stop  offset="0" style="stop-color:#3FF6FF"/>
		<stop  offset="0.266" style="stop-color:#00BF9C"/>
		<stop  offset="1" style="stop-color:#000000"/>
	</linearGradient>
	<path id="XMLID_7_" class="st1" d="M208.3,275.3c-39.8-37.2-88.1-47.5-161-32.6c-0.1,0.1-0.1,0.3-0.2,0.4c-0.1,0.1-0.2,0.2-0.3,0.3
		c-0.2,0.2-0.5,0.4-0.8,0.5c7.4,15.7,15.6,27.4,24.4,36c20.9,20.5,45.2,24.1,69.5,25.3C72.5,272.2,123,248.7,208.3,275.3z"/>
	<linearGradient id="XMLID_9_" gradientUnits="userSpaceOnUse" x1="46.0206" y1="332.2458" x2="239.23" y2="332.2458">
		<stop  offset="3.284062e-002" style="stop-color:#000000"/>
		<stop  offset="0.5895" style="stop-color:#00BF9C"/>
		<stop  offset="1" style="stop-color:#3FF6FF"/>
	</linearGradient>
	<path id="XMLID_6_" class="st2" d="M239.2,344.5c-25.5-41.2-62.5-37.5-99.3-39.3c-24.3-1.2-48.6-4.8-69.5-25.3
		c-8.8-8.6-17-20.3-24.4-36c0,0,0,0,0,0l0.5,70.5v0c42.2,45,90.7,40.6,122.8,43.7c27.9,2.7,43.5,11.1,31.9,62.5
		C221.6,400.1,235,373.4,239.2,344.5z"/>
	<linearGradient id="XMLID_10_" gradientUnits="userSpaceOnUse" x1="48.47" y1="401.825" x2="205.1017" y2="401.825">
		<stop  offset="0" style="stop-color:#3FF6FF"/>
		<stop  offset="0.3842" style="stop-color:#00BF9C"/>
		<stop  offset="0.9343" style="stop-color:#000000"/>
		<stop  offset="1" style="stop-color:#000D0A"/>
	</linearGradient>
	<path id="XMLID_23_" class="st3" d="M201.3,420.6c-8.5,8.6-18.3,16-29,22.2l-26.7,15.2L115,440.6c-35.6-20.2-59.8-55.3-66.5-94.9
		c91,111.5,156.8,31,120.9,12.4C197.2,360.8,212.8,369.2,201.3,420.6z"/>
	<linearGradient id="XMLID_11_" gradientUnits="userSpaceOnUse" x1="46" y1="264.94" x2="240.56" y2="264.94">
		<stop  offset="0.2479" style="stop-color:#000000"/>
		<stop  offset="0.5895" style="stop-color:#00BF9C"/>
		<stop  offset="1" style="stop-color:#3FF6FF"/>
	</linearGradient>
	<path id="XMLID_19_" class="st4" d="M240.6,314.7c-10.3-15-20.9-27.8-32.2-38.3c0,0,0,0,0,0c-40-37.5-88.7-47.6-162.3-32.3
		c29.3-18.2,64.3-28.8,102-28.8c33.5,0,64.9,8.4,92.1,23L240.6,314.7z"/>
	<line id="XMLID_5_" class="st0" x1="73" y1="223" x2="73" y2="-26"/>
	<line id="XMLID_13_" class="st0" x1="42" y1="322" x2="42" y2="232"/>
	<line id="XMLID_14_" class="st0" x1="46" y1="394" x2="46" y2="304"/>
</g>
<rect id="XMLID_1_" x="190.5" y="285.5" class="st0" width="673" height="217"/>
<text id="XMLID_2_" transform="matrix(1 0 0 1 328.416 350.9033)" class="st5 st6">T_S E C U R E       </text>
</svg>
